<?xml version="1.0" encoding="UTF-8"?>
<svg xmlns="http://www.w3.org/2000/svg" version="1.1" xmlns:xlink="http://www.w3.org/1999/xlink" viewBox="0 0 750 500">
  <defs>
    <style>
      .cls-1 {
        fill: url(#linear-gradient-15);
      }

      .cls-2 {
        fill: url(#linear-gradient-13);
      }

      .cls-3 {
        fill: url(#New_Gradient_Swatch_1-4);
      }

      .cls-4 {
        filter: url(#drop-shadow-16);
      }

      .cls-5 {
        fill: url(#New_Gradient_Swatch_1-3);
      }

      .cls-6 {
        fill: url(#New_Gradient_Swatch_1-8);
      }

      .cls-7 {
        fill: url(#linear-gradient-2);
      }

      .cls-8 {
        filter: url(#drop-shadow-9);
      }

      .cls-9 {
        filter: url(#drop-shadow-2);
      }

      .cls-10 {
        filter: url(#drop-shadow-14);
      }

      .cls-11 {
        fill: url(#New_Gradient_Swatch_1-13);
      }

      .cls-12 {
        filter: url(#drop-shadow-6);
      }

      .cls-13 {
        fill: url(#linear-gradient-10);
      }

      .cls-14 {
        fill: url(#linear-gradient-12);
      }

      .cls-15 {
        fill: url(#New_Gradient_Swatch_1-10);
      }

      .cls-16 {
        fill: url(#New_Gradient_Swatch_1-11);
      }

      .cls-17 {
        filter: url(#drop-shadow-5);
      }

      .cls-18 {
        filter: url(#drop-shadow-17);
      }

      .cls-19 {
        fill: #fff;
      }

      .cls-20 {
        fill: url(#New_Gradient_Swatch_1-7);
      }

      .cls-21 {
        fill: none;
      }

      .cls-22 {
        fill: url(#linear-gradient-4);
      }

      .cls-23 {
        filter: url(#drop-shadow-8);
      }

      .cls-24 {
        filter: url(#drop-shadow-4);
      }

      .cls-25 {
        fill: url(#radial-gradient);
      }

      .cls-26 {
        filter: url(#drop-shadow-7);
      }

      .cls-27 {
        fill: url(#New_Gradient_Swatch_1-12);
      }

      .cls-28 {
        fill: url(#linear-gradient-3);
      }

      .cls-29 {
        filter: url(#drop-shadow-1);
      }

      .cls-30 {
        fill: url(#linear-gradient-5);
      }

      .cls-31 {
        fill: url(#New_Gradient_Swatch_1-6);
      }

      .cls-32 {
        filter: url(#drop-shadow-13);
      }

      .cls-33 {
        filter: url(#drop-shadow-11);
      }

      .cls-34 {
        filter: url(#drop-shadow-10);
      }

      .cls-35 {
        fill: url(#linear-gradient-8);
      }

      .cls-36 {
        fill: url(#linear-gradient-14);
      }

      .cls-37 {
        fill: url(#New_Gradient_Swatch_1-2);
      }

      .cls-38 {
        fill: url(#New_Gradient_Swatch_1-9);
      }

      .cls-39 {
        fill: url(#linear-gradient-20);
      }

      .cls-40 {
        fill: url(#linear-gradient-17);
      }

      .cls-41 {
        fill: url(#linear-gradient-7);
      }

      .cls-42 {
        fill: url(#linear-gradient-9);
      }

      .cls-43 {
        fill: url(#linear-gradient-11);
      }

      .cls-44 {
        fill: url(#linear-gradient-19);
      }

      .cls-45 {
        fill: url(#linear-gradient-6);
      }

      .cls-46 {
        fill: url(#New_Gradient_Swatch_1-5);
      }

      .cls-47 {
        filter: url(#drop-shadow-12);
      }

      .cls-48 {
        filter: url(#drop-shadow-3);
      }

      .cls-49 {
        fill: url(#linear-gradient-16);
      }

      .cls-50 {
        fill: url(#linear-gradient);
      }

      .cls-51 {
        fill: url(#New_Gradient_Swatch_1-14);
      }

      .cls-52 {
        fill: url(#New_Gradient_Swatch_1);
      }

      .cls-53 {
        clip-path: url(#clippath);
      }

      .cls-54 {
        filter: url(#drop-shadow-15);
      }

      .cls-55 {
        fill: url(#linear-gradient-18);
      }
    </style>
    <clipPath id="clippath">
      <rect class="cls-21" width="750" height="500"/>
    </clipPath>
    <radialGradient id="radial-gradient" cx="375" cy="250" fx="375" fy="250" r="567.38" gradientUnits="userSpaceOnUse">
      <stop offset=".07" stop-color="#fff"/>
      <stop offset=".66" stop-color="#eff1f1"/>
      <stop offset="1" stop-color="#e5e7e7"/>
    </radialGradient>
    <linearGradient id="New_Gradient_Swatch_1" data-name="New Gradient Swatch 1" x1="767.69" y1="68.13" x2="705.96" y2="131.83" gradientUnits="userSpaceOnUse">
      <stop offset="0" stop-color="#006025"/>
      <stop offset=".08" stop-color="#0d7628"/>
      <stop offset=".26" stop-color="#2fb032"/>
      <stop offset=".47" stop-color="#5dff3f"/>
      <stop offset=".49" stop-color="#60ff43"/>
      <stop offset=".51" stop-color="#6cff51"/>
      <stop offset=".54" stop-color="#80ff67"/>
      <stop offset=".57" stop-color="#9bff87"/>
      <stop offset=".59" stop-color="#b9ffaa"/>
      <stop offset=".63" stop-color="#a7ff97"/>
      <stop offset=".72" stop-color="#7dff6a"/>
      <stop offset=".78" stop-color="#89ff78"/>
      <stop offset=".89" stop-color="#aaff9e"/>
      <stop offset=".93" stop-color="#b5ffaa"/>
    </linearGradient>
    <linearGradient id="New_Gradient_Swatch_1-2" data-name="New Gradient Swatch 1" x1="699.96" y1="29.02" x2="638.24" y2="92.72" xlink:href="#New_Gradient_Swatch_1"/>
    <linearGradient id="New_Gradient_Swatch_1-3" data-name="New Gradient Swatch 1" x1="555.65" y1="99.98" x2="647.1" y2="99.98" xlink:href="#New_Gradient_Swatch_1"/>
    <linearGradient id="New_Gradient_Swatch_1-4" data-name="New Gradient Swatch 1" x1="429.06" y1="-49.18" x2="367.33" y2="14.52" xlink:href="#New_Gradient_Swatch_1"/>
    <linearGradient id="New_Gradient_Swatch_1-5" data-name="New Gradient Swatch 1" x1="767.69" y1="146.33" x2="705.96" y2="210.03" xlink:href="#New_Gradient_Swatch_1"/>
    <linearGradient id="New_Gradient_Swatch_1-6" data-name="New Gradient Swatch 1" x1="767.69" y1="302.73" x2="705.96" y2="366.43" xlink:href="#New_Gradient_Swatch_1"/>
    <linearGradient id="linear-gradient" x1="699.96" y1="185.43" x2="638.24" y2="249.13" gradientUnits="userSpaceOnUse">
      <stop offset="0" stop-color="#9e6025"/>
      <stop offset=".12" stop-color="#ae7638"/>
      <stop offset=".37" stop-color="#d8b06a"/>
      <stop offset=".47" stop-color="#e9c77e"/>
      <stop offset=".5" stop-color="#eac982"/>
      <stop offset=".53" stop-color="#f0ce90"/>
      <stop offset=".57" stop-color="#f9d8a6"/>
      <stop offset=".59" stop-color="#ffdeb3"/>
      <stop offset=".64" stop-color="#f7d6a0"/>
      <stop offset=".72" stop-color="#e9c77e"/>
      <stop offset=".89" stop-color="#f3d58b"/>
      <stop offset=".93" stop-color="#f6d98f"/>
    </linearGradient>
    <linearGradient id="New_Gradient_Swatch_1-7" data-name="New Gradient Swatch 1" x1="699.96" y1="-49.18" x2="638.24" y2="14.52" xlink:href="#New_Gradient_Swatch_1"/>
    <filter id="drop-shadow-1" x="668.96" y="-32.04" width="126.72" height="113.76" filterUnits="userSpaceOnUse">
      <feOffset dx="-4.56" dy="3"/>
      <feGaussianBlur result="blur" stdDeviation="5"/>
      <feFlood flood-color="#5b5b89" flood-opacity=".2"/>
      <feComposite in2="blur" operator="in"/>
      <feComposite in="SourceGraphic"/>
    </filter>
    <linearGradient id="linear-gradient-2" x1="772" y1="-16.11" x2="589.26" y2="180.69" gradientUnits="userSpaceOnUse">
      <stop offset="0" stop-color="#ebeded"/>
      <stop offset=".21" stop-color="#eff1f1"/>
      <stop offset="1" stop-color="#fff"/>
    </linearGradient>
    <filter id="drop-shadow-2" x="533.6" y="-32.04" width="126.48" height="113.76" filterUnits="userSpaceOnUse">
      <feOffset dx="-4.56" dy="3"/>
      <feGaussianBlur result="blur-2" stdDeviation="5"/>
      <feFlood flood-color="#5b5b89" flood-opacity=".2"/>
      <feComposite in2="blur-2" operator="in"/>
      <feComposite in="SourceGraphic"/>
    </filter>
    <linearGradient id="linear-gradient-3" x1="699.26" y1="-83.65" x2="516.53" y2="113.15" xlink:href="#linear-gradient-2"/>
    <filter id="drop-shadow-3" x="547.52" y="-20.04" width="98.64" height="89.52" filterUnits="userSpaceOnUse">
      <feOffset dx="-4.56" dy="3"/>
      <feGaussianBlur result="blur-3" stdDeviation="5"/>
      <feFlood flood-color="#5b5b89" flood-opacity=".2"/>
      <feComposite in2="blur-3" operator="in"/>
      <feComposite in="SourceGraphic"/>
    </filter>
    <linearGradient id="linear-gradient-4" x1="434.13" y1="167.35" x2="682.13" y2="-48.52" xlink:href="#linear-gradient-2"/>
    <filter id="drop-shadow-4" x="601.28" y="163.32" width="126.48" height="113.76" filterUnits="userSpaceOnUse">
      <feOffset dx="-4.56" dy="3"/>
      <feGaussianBlur result="blur-4" stdDeviation="5"/>
      <feFlood flood-color="#5b5b89" flood-opacity=".2"/>
      <feComposite in2="blur-4" operator="in"/>
      <feComposite in="SourceGraphic"/>
    </filter>
    <linearGradient id="linear-gradient-5" x1="744.27" y1="116.64" x2="622.78" y2="279.3" xlink:href="#linear-gradient-2"/>
    <filter id="drop-shadow-5" x="736.64" y="241.56" width="126.72" height="113.76" filterUnits="userSpaceOnUse">
      <feOffset dx="-4.56" dy="3"/>
      <feGaussianBlur result="blur-5" stdDeviation="5"/>
      <feFlood flood-color="#5b5b89" flood-opacity=".2"/>
      <feComposite in2="blur-5" operator="in"/>
      <feComposite in="SourceGraphic"/>
    </filter>
    <linearGradient id="linear-gradient-6" x1="868.71" y1="209.59" x2="747.22" y2="372.24" xlink:href="#linear-gradient-2"/>
    <filter id="drop-shadow-6" x="682.88" y="136.44" width="98.88" height="89.52" filterUnits="userSpaceOnUse">
      <feOffset dx="-4.56" dy="3"/>
      <feGaussianBlur result="blur-6" stdDeviation="5"/>
      <feFlood flood-color="#5b5b89" flood-opacity=".2"/>
      <feComposite in2="blur-6" operator="in"/>
      <feComposite in="SourceGraphic"/>
    </filter>
    <linearGradient id="linear-gradient-7" x1="768.99" y1="135.11" x2="647.5" y2="297.77" xlink:href="#linear-gradient-2"/>
    <filter id="drop-shadow-7" x="682.88" y="214.68" width="98.88" height="89.52" filterUnits="userSpaceOnUse">
      <feOffset dx="-4.56" dy="3"/>
      <feGaussianBlur result="blur-7" stdDeviation="5"/>
      <feFlood flood-color="#5b5b89" flood-opacity=".2"/>
      <feComposite in2="blur-7" operator="in"/>
      <feComposite in="SourceGraphic"/>
    </filter>
    <filter id="drop-shadow-8" x="682.88" y="370.92" width="98.88" height="89.76" filterUnits="userSpaceOnUse">
      <feOffset dx="-4.56" dy="3"/>
      <feGaussianBlur result="blur-8" stdDeviation="5"/>
      <feFlood flood-color="#5b5b89" flood-opacity=".2"/>
      <feComposite in2="blur-8" operator="in"/>
      <feComposite in="SourceGraphic"/>
    </filter>
    <filter id="drop-shadow-9" x="411.92" y="-20.04" width="98.88" height="89.52" filterUnits="userSpaceOnUse">
      <feOffset dx="-4.56" dy="3"/>
      <feGaussianBlur result="blur-9" stdDeviation="5"/>
      <feFlood flood-color="#5b5b89" flood-opacity=".2"/>
      <feComposite in2="blur-9" operator="in"/>
      <feComposite in="SourceGraphic"/>
    </filter>
    <linearGradient id="linear-gradient-8" x1="614.67" y1="-138.41" x2="431.93" y2="58.38" xlink:href="#linear-gradient-2"/>
    <linearGradient id="New_Gradient_Swatch_1-8" data-name="New Gradient Swatch 1" x1="90.43" y1="380.94" x2="28.71" y2="444.64" xlink:href="#New_Gradient_Swatch_1"/>
    <linearGradient id="New_Gradient_Swatch_1-9" data-name="New Gradient Swatch 1" x1="22.71" y1="420.04" x2="-39.02" y2="483.74" xlink:href="#New_Gradient_Swatch_1"/>
    <linearGradient id="linear-gradient-9" x1="293.61" y1="420.04" x2="231.88" y2="483.74" xlink:href="#linear-gradient"/>
    <linearGradient id="New_Gradient_Swatch_1-10" data-name="New Gradient Swatch 1" x1="293.61" y1="498.24" x2="231.88" y2="561.94" xlink:href="#New_Gradient_Swatch_1"/>
    <linearGradient id="linear-gradient-10" x1="22.71" y1="341.83" x2="-39.02" y2="405.53" xlink:href="#linear-gradient"/>
    <linearGradient id="linear-gradient-11" x1="90.43" y1="459.14" x2="28.71" y2="522.84" xlink:href="#linear-gradient"/>
    <linearGradient id="New_Gradient_Swatch_1-11" data-name="New Gradient Swatch 1" x1="22.71" y1="498.24" x2="-39.02" y2="561.94" xlink:href="#New_Gradient_Swatch_1"/>
    <linearGradient id="New_Gradient_Swatch_1-12" data-name="New Gradient Swatch 1" x1="158.16" y1="263.63" x2="96.43" y2="327.33" xlink:href="#New_Gradient_Swatch_1"/>
    <linearGradient id="New_Gradient_Swatch_1-13" data-name="New Gradient Swatch 1" x1="22.71" y1="263.63" x2="-39.02" y2="327.33" xlink:href="#New_Gradient_Swatch_1"/>
    <linearGradient id="linear-gradient-12" x1="22.71" y1="185.43" x2="-39.02" y2="249.13" xlink:href="#linear-gradient"/>
    <linearGradient id="New_Gradient_Swatch_1-14" data-name="New Gradient Swatch 1" x1="158.16" y1="-783.74" x2="96.43" y2="-720.04" gradientTransform="translate(0 -300) scale(1 -1)" xlink:href="#New_Gradient_Swatch_1"/>
    <filter id="drop-shadow-10" x="194.96" y="398.04" width="126.48" height="113.76" filterUnits="userSpaceOnUse">
      <feOffset dx="-4.56" dy="3"/>
      <feGaussianBlur result="blur-10" stdDeviation="5"/>
      <feFlood flood-color="#5b5b89" flood-opacity=".2"/>
      <feComposite in2="blur-10" operator="in"/>
      <feComposite in="SourceGraphic"/>
    </filter>
    <linearGradient id="linear-gradient-13" x1="58.22" y1="629.91" x2="306.22" y2="414.04" xlink:href="#linear-gradient-2"/>
    <filter id="drop-shadow-11" x="-76" y="163.32" width="126.48" height="113.76" filterUnits="userSpaceOnUse">
      <feOffset dx="-4.56" dy="3"/>
      <feGaussianBlur result="blur-11" stdDeviation="5"/>
      <feFlood flood-color="#5b5b89" flood-opacity=".2"/>
      <feComposite in2="blur-11" operator="in"/>
      <feComposite in="SourceGraphic"/>
    </filter>
    <linearGradient id="linear-gradient-14" x1="-174.74" y1="362.28" x2="73.26" y2="146.41" xlink:href="#linear-gradient-2"/>
    <filter id="drop-shadow-12" x="59.36" y="317.64" width="126.72" height="113.76" filterUnits="userSpaceOnUse">
      <feOffset dx="-4.56" dy="3"/>
      <feGaussianBlur result="blur-12" stdDeviation="5"/>
      <feFlood flood-color="#5b5b89" flood-opacity=".2"/>
      <feComposite in2="blur-12" operator="in"/>
      <feComposite in="SourceGraphic"/>
    </filter>
    <linearGradient id="linear-gradient-15" x1="92.66" y1="417.18" x2="161.8" y2="326.08" xlink:href="#linear-gradient-2"/>
    <filter id="drop-shadow-13" x="73.28" y="329.64" width="98.88" height="89.76" filterUnits="userSpaceOnUse">
      <feOffset dx="-4.56" dy="3"/>
      <feGaussianBlur result="blur-13" stdDeviation="5"/>
      <feFlood flood-color="#5b5b89" flood-opacity=".2"/>
      <feComposite in2="blur-13" operator="in"/>
      <feComposite in="SourceGraphic"/>
    </filter>
    <linearGradient id="linear-gradient-16" x1="-39.95" y1="517.13" x2="208.05" y2="301.26" xlink:href="#linear-gradient-2"/>
    <filter id="drop-shadow-14" x="73.28" y="410.04" width="98.88" height="89.76" filterUnits="userSpaceOnUse">
      <feOffset dx="-4.56" dy="3"/>
      <feGaussianBlur result="blur-14" stdDeviation="5"/>
      <feFlood flood-color="#5b5b89" flood-opacity=".2"/>
      <feComposite in2="blur-14" operator="in"/>
      <feComposite in="SourceGraphic"/>
    </filter>
    <linearGradient id="linear-gradient-17" x1="-39.95" y1="597.47" x2="208.05" y2="381.6" xlink:href="#linear-gradient-2"/>
    <filter id="drop-shadow-15" x="5.6" y="216.6" width="98.88" height="89.76" filterUnits="userSpaceOnUse">
      <feOffset dx="-4.56" dy="3"/>
      <feGaussianBlur result="blur-15" stdDeviation="5"/>
      <feFlood flood-color="#5b5b89" flood-opacity=".2"/>
      <feComposite in2="blur-15" operator="in"/>
      <feComposite in="SourceGraphic"/>
    </filter>
    <linearGradient id="linear-gradient-18" x1="-125.12" y1="419.28" x2="122.88" y2="203.41" xlink:href="#linear-gradient-2"/>
    <filter id="drop-shadow-16" x="-76" y="319.8" width="126.48" height="113.76" filterUnits="userSpaceOnUse">
      <feOffset dx="-4.56" dy="3"/>
      <feGaussianBlur result="blur-16" stdDeviation="5"/>
      <feFlood flood-color="#5b5b89" flood-opacity=".2"/>
      <feComposite in2="blur-16" operator="in"/>
      <feComposite in="SourceGraphic"/>
    </filter>
    <linearGradient id="linear-gradient-19" x1="-97.28" y1="451.26" x2="150.72" y2="235.39" xlink:href="#linear-gradient-2"/>
    <filter id="drop-shadow-17" x="-8.32" y="437.16" width="126.72" height="113.76" filterUnits="userSpaceOnUse">
      <feOffset dx="-4.56" dy="3"/>
      <feGaussianBlur result="blur-17" stdDeviation="5"/>
      <feFlood flood-color="#5b5b89" flood-opacity=".2"/>
      <feComposite in2="blur-17" operator="in"/>
      <feComposite in="SourceGraphic"/>
    </filter>
    <linearGradient id="linear-gradient-20" x1="-10" y1="551.54" x2="238" y2="335.67" xlink:href="#linear-gradient-2"/>
  </defs>
  <!-- Generator: Adobe Illustrator 28.7.1, SVG Export Plug-In . SVG Version: 1.2.0 Build 142)  -->
  <g>
    <g id="OBJECTS">
      <g class="cls-53">
        <rect class="cls-25" width="750" height="500"/>
        <g>
          <path class="cls-52" d="M759.69,139.58h-45.73l-.14-.25-22.72-39.35,22.86-39.6h45.73l.14.25,22.72,39.35-22.86,39.6ZM714.54,138.58h44.57l22.29-38.6-22.29-38.6h-44.57l-22.29,38.6,22.29,38.6Z"/>
          <path class="cls-37" d="M691.96,100.48h-45.73l-.14-.25-22.72-39.35,22.86-39.6h45.73l.14.25,22.72,39.35-22.86,39.6ZM646.81,99.48h44.57l22.29-38.6-22.29-38.6h-44.57l-22.29,38.6,22.29,38.6Z"/>
          <path class="cls-5" d="M624.24,139.58h-45.73l-.14-.25-22.72-39.35,22.86-39.6h45.73l.14.25,22.72,39.35-22.86,39.6ZM579.09,138.58h44.57l22.29-38.6-22.29-38.6h-44.57l-22.29,38.6,22.29,38.6Z"/>
          <path class="cls-3" d="M421.06,22.27h-45.73l-22.86-39.6,22.86-39.6h45.73l.14.25,22.72,39.35-22.86,39.6ZM375.91,21.27h44.57l22.29-38.6-22.29-38.6h-44.57l-22.29,38.6,22.29,38.6Z"/>
          <path class="cls-46" d="M759.69,217.78h-45.73l-.14-.25-22.72-39.35,22.86-39.6h45.73l.14.25,22.72,39.35-22.86,39.6ZM714.54,216.78h44.57l22.29-38.6-22.29-38.6h-44.57l-22.29,38.6,22.29,38.6Z"/>
          <path class="cls-31" d="M759.69,374.18h-45.73l-.14-.25-22.72-39.35,22.86-39.6h45.73l.14.25,22.72,39.35-22.86,39.6ZM714.54,373.18h44.57l22.29-38.6-22.29-38.6h-44.57l-22.29,38.6,22.29,38.6Z"/>
          <path class="cls-50" d="M691.96,256.88h-45.73l-.14-.25-22.72-39.35,22.86-39.6h45.73l.14.25,22.72,39.35-22.86,39.6ZM646.81,255.88h44.57l22.29-38.6-22.29-38.6h-44.57l-22.29,38.6,22.29,38.6Z"/>
          <path class="cls-20" d="M691.96,22.27h-45.73l-.14-.25-22.72-39.35,22.86-39.6h45.73l.14.25,22.72,39.35-22.86,39.6ZM646.81,21.27h44.57l22.29-38.6-22.29-38.6h-44.57l-22.29,38.6,22.29,38.6Z"/>
          <g class="cls-29">
            <polygon class="cls-7" points="760.92 -19.96 712.73 -19.96 688.63 21.77 712.73 63.51 760.92 63.51 785.02 21.77 778.82 11.03 760.92 -19.96"/>
            <path class="cls-19" d="M778.82,11.03l-17.9-31h-48.19l-24.1,41.74,24.1,41.74h48.19l24.1-41.74-6.2-10.74ZM760.63,63.01h-47.62l-23.81-41.24,23.81-41.24h47.62l23.81,41.24-23.81,41.24Z"/>
          </g>
          <g class="cls-9">
            <polygon class="cls-28" points="625.47 -19.96 577.28 -19.96 553.18 21.77 577.28 63.51 625.47 63.51 649.57 21.77 643.37 11.03 625.47 -19.96"/>
            <path class="cls-19" d="M643.37,11.03l-17.9-31h-48.19l-24.1,41.74,24.1,41.74h48.19l24.1-41.74-6.2-10.74ZM625.18,63.01h-47.62l-23.81-41.24,23.81-41.24h47.62l23.81,41.24-23.81,41.24Z"/>
          </g>
          <g class="cls-48">
            <polygon class="cls-22" points="618.52 -7.92 584.23 -7.92 567.09 21.77 584.23 51.47 618.52 51.47 635.66 21.77 631.25 14.13 618.52 -7.92"/>
            <path class="cls-19" d="M631.25,14.13l-12.73-22.05h-34.29l-17.14,29.69,17.14,29.69h34.29l17.14-29.69-4.41-7.64ZM618.31,51.11h-33.88l-16.94-29.34,16.94-29.34h33.88l16.94,29.34-16.94,29.34Z"/>
          </g>
          <g class="cls-24">
            <polygon class="cls-30" points="693.2 175.54 645 175.54 620.91 217.28 645 259.02 693.2 259.02 717.29 217.28 711.09 206.54 693.2 175.54"/>
            <path class="cls-19" d="M711.09,206.54l-17.9-31h-48.19l-24.1,41.74,24.1,41.74h48.19l24.1-41.74-6.2-10.74ZM692.91,258.52h-47.62l-23.81-41.24,23.81-41.24h47.62l23.81,41.24-23.81,41.24Z"/>
          </g>
          <g class="cls-17">
            <polygon class="cls-45" points="828.65 253.75 780.45 253.75 756.36 295.48 780.45 337.22 828.65 337.22 852.74 295.48 846.54 284.74 828.65 253.75"/>
            <path class="cls-19" d="M846.54,284.74l-17.9-31h-48.19l-24.1,41.74,24.1,41.74h48.19l24.1-41.74-6.2-10.74ZM828.36,336.72h-47.62l-23.81-41.24,23.81-41.24h47.62l23.81,41.24-23.81,41.24Z"/>
          </g>
          <g class="cls-12">
            <polygon class="cls-41" points="753.97 148.48 719.68 148.48 702.54 178.18 719.68 207.87 753.97 207.87 771.11 178.18 766.7 170.54 753.97 148.48"/>
            <path class="cls-19" d="M766.7,170.54l-12.73-22.05h-34.29l-17.14,29.69,17.14,29.69h34.29l17.14-29.69-4.41-7.64ZM753.76,207.52h-33.88l-16.94-29.34,16.94-29.34h33.88l16.94,29.34-16.94,29.34Z"/>
          </g>
          <g class="cls-26">
            <polygon class="cls-19" points="753.97 226.69 719.68 226.69 702.54 256.38 719.68 286.07 753.97 286.07 771.11 256.38 766.7 248.74 753.97 226.69"/>
            <path class="cls-19" d="M766.7,248.74l-12.73-22.05h-34.29l-17.14,29.69,17.14,29.69h34.29l17.14-29.69-4.41-7.64ZM753.76,285.72h-33.88l-16.94-29.34,16.94-29.34h33.88l16.94,29.34-16.94,29.34Z"/>
          </g>
          <g class="cls-23">
            <polygon class="cls-19" points="753.97 383.09 719.68 383.09 702.54 412.79 719.68 442.48 753.97 442.48 771.11 412.79 766.7 405.15 753.97 383.09"/>
            <path class="cls-19" d="M766.7,405.15l-12.73-22.05h-34.29l-17.14,29.69,17.14,29.69h34.29l17.14-29.69-4.41-7.64ZM753.76,442.13h-33.88l-16.94-29.34,16.94-29.34h33.88l16.94,29.34-16.94,29.34Z"/>
          </g>
          <g class="cls-8">
            <polygon class="cls-35" points="483.07 -7.92 448.78 -7.92 431.64 21.77 448.78 51.47 483.07 51.47 500.21 21.77 495.8 14.13 483.07 -7.92"/>
            <path class="cls-19" d="M495.8,14.13l-12.73-22.05h-34.29l-17.14,29.69,17.14,29.69h34.29l17.14-29.69-4.41-7.64ZM482.86,51.11h-33.88l-16.94-29.34,16.94-29.34h33.88l16.94,29.34-16.94,29.34Z"/>
          </g>
        </g>
        <g>
          <path class="cls-6" d="M82.43,452.39h-45.73l-22.86-39.6,22.86-39.6h45.73l22.86,39.6-22.86,39.6ZM37.28,451.39h44.57l22.29-38.6-22.29-38.6h-44.57l-22.29,38.6,22.29,38.6Z"/>
          <path class="cls-38" d="M14.71,491.49H-31.02l-22.86-39.6,22.86-39.6H14.71l22.86,39.6-22.86,39.6ZM-30.44,490.49H14.13l22.29-38.6-22.29-38.6H-30.44l-22.29,38.6,22.29,38.6Z"/>
          <path class="cls-42" d="M285.61,491.49h-45.73l-22.86-39.6,22.86-39.6h45.73l22.86,39.6-22.86,39.6ZM240.46,490.49h44.57l22.29-38.6-22.29-38.6h-44.57l-22.29,38.6,22.29,38.6Z"/>
          <path class="cls-15" d="M285.61,569.69h-45.73l-22.86-39.6,22.86-39.6h45.73l22.86,39.6-22.86,39.6ZM240.46,568.69h44.57l22.29-38.6-22.29-38.6h-44.57l-22.29,38.6,22.29,38.6Z"/>
          <path class="cls-13" d="M14.71,413.29H-31.02l-22.86-39.6,22.86-39.6H14.71l22.86,39.6-22.86,39.6ZM-30.44,412.29H14.13l22.29-38.6-22.29-38.6H-30.44l-22.29,38.6,22.29,38.6Z"/>
          <path class="cls-43" d="M82.43,530.59h-45.73l-22.86-39.6,22.86-39.6h45.73l22.86,39.6-22.86,39.6ZM37.28,529.59h44.57l22.29-38.6-22.29-38.6h-44.57l-22.29,38.6,22.29,38.6Z"/>
          <path class="cls-16" d="M14.71,569.69H-31.02l-22.86-39.6,22.86-39.6H14.71l22.86,39.6-22.86,39.6ZM-30.44,568.69H14.13l22.29-38.6-22.29-38.6H-30.44l-22.29,38.6,22.29,38.6Z"/>
          <path class="cls-27" d="M150.16,335.08h-45.73l-22.86-39.6,22.86-39.6h45.73l22.86,39.6-22.86,39.6ZM105.01,334.08h44.57l22.29-38.6-22.29-38.6h-44.57l-22.29,38.6,22.29,38.6Z"/>
          <path class="cls-11" d="M14.71,335.08H-31.02l-22.86-39.6,22.86-39.6H14.71l22.86,39.6-22.86,39.6ZM-30.44,334.08H14.13l22.29-38.6-22.29-38.6H-30.44l-22.29,38.6,22.29,38.6Z"/>
          <path class="cls-14" d="M14.71,256.88H-31.02l-22.86-39.6,22.86-39.6H14.71l22.86,39.6-22.86,39.6ZM-30.44,255.88H14.13l22.29-38.6-22.29-38.6H-30.44l-22.29,38.6,22.29,38.6Z"/>
          <path class="cls-51" d="M150.16,491.49h-45.73l-22.86-39.6,22.86-39.6h45.73l22.86,39.6-22.86,39.6ZM105.01,490.49h44.57l22.29-38.6-22.29-38.6h-44.57l-22.29,38.6,22.29,38.6Z"/>
          <g class="cls-34">
            <polygon class="cls-2" points="286.84 410.15 238.65 410.15 214.55 451.89 238.65 493.62 286.84 493.62 310.94 451.89 304.74 441.15 286.84 410.15"/>
            <path class="cls-19" d="M304.74,441.15l-17.9-31h-48.19l-24.1,41.74,24.1,41.74h48.19l24.1-41.74-6.2-10.74ZM286.56,493.13h-47.62l-23.81-41.24,23.81-41.24h47.62l23.81,41.24-23.81,41.24Z"/>
          </g>
          <g class="cls-33">
            <polygon class="cls-36" points="15.94 175.54 -32.25 175.54 -56.35 217.28 -32.25 259.02 15.94 259.02 40.04 217.28 33.84 206.54 15.94 175.54"/>
            <path class="cls-19" d="M33.84,206.54l-17.9-31h-48.19l-24.1,41.74,24.1,41.74H15.94l24.1-41.74-6.2-10.74ZM15.65,258.52H-31.96l-23.81-41.24,23.81-41.24H15.65l23.81,41.24-23.81,41.24Z"/>
          </g>
          <g class="cls-47">
            <polygon class="cls-1" points="151.39 329.81 103.2 329.81 79.1 371.55 103.2 413.28 151.39 413.28 175.49 371.55 169.29 360.81 151.39 329.81"/>
            <path class="cls-19" d="M169.29,360.81l-17.9-31h-48.19l-24.1,41.74,24.1,41.74h48.19l24.1-41.74-6.2-10.74ZM151.1,412.79h-47.62l-23.81-41.24,23.81-41.24h47.62l23.81,41.24-23.81,41.24Z"/>
          </g>
          <g class="cls-32">
            <polygon class="cls-49" points="144.44 341.85 110.15 341.85 93.01 371.55 110.15 401.24 144.44 401.24 161.58 371.55 157.17 363.91 144.44 341.85"/>
            <path class="cls-19" d="M157.17,363.91l-12.73-22.05h-34.29l-17.14,29.69,17.14,29.69h34.29l17.14-29.69-4.41-7.64ZM144.24,400.89h-33.88l-16.94-29.34,16.94-29.34h33.88l16.94,29.34-16.94,29.34Z"/>
          </g>
          <g class="cls-10">
            <polygon class="cls-40" points="144.44 422.19 110.15 422.19 93.01 451.89 110.15 481.58 144.44 481.58 161.58 451.89 157.17 444.25 144.44 422.19"/>
            <path class="cls-19" d="M157.17,444.25l-12.73-22.05h-34.29l-17.14,29.69,17.14,29.69h34.29l17.14-29.69-4.41-7.64ZM144.24,481.23h-33.88l-16.94-29.34,16.94-29.34h33.88l16.94,29.34-16.94,29.34Z"/>
          </g>
          <g class="cls-54">
            <polygon class="cls-55" points="76.71 228.82 42.43 228.82 25.28 258.52 42.43 288.21 76.71 288.21 93.86 258.52 89.45 250.88 76.71 228.82"/>
            <path class="cls-19" d="M89.45,250.88l-12.73-22.05h-34.29l-17.14,29.69,17.14,29.69h34.29l17.14-29.69-4.41-7.64ZM76.51,287.86h-33.88l-16.94-29.34,16.94-29.34h33.88l16.94,29.34-16.94,29.34Z"/>
          </g>
          <g class="cls-4">
            <polygon class="cls-44" points="-32.25 415.42 15.94 415.42 40.04 373.68 15.94 331.95 -32.25 331.95 -56.35 373.68 -50.15 384.42 -32.25 415.42"/>
            <path class="cls-19" d="M-50.15,384.42l17.9,31H15.94l24.1-41.74-24.1-41.74h-48.19l-24.1,41.74,6.2,10.74ZM-31.96,332.45H15.65l23.81,41.24-23.81,41.24H-31.96l-23.81-41.24,23.81-41.24Z"/>
          </g>
          <g class="cls-18">
            <polygon class="cls-39" points="35.47 532.72 83.67 532.72 107.76 490.99 83.67 449.25 35.47 449.25 11.38 490.99 17.58 501.73 35.47 532.72"/>
            <path class="cls-19" d="M17.58,501.73l17.9,31h48.19l24.1-41.74-24.1-41.74h-48.19l-24.1,41.74,6.2,10.74ZM35.76,449.75h47.62l23.81,41.24-23.81,41.24h-47.62l-23.81-41.24,23.81-41.24Z"/>
          </g>
        </g>
      </g>
    </g>
  </g>
</svg>